<?xml version="1.0" standalone="no"?>
<!DOCTYPE svg PUBLIC "-//W3C//DTD SVG 20010904//EN"
 "http://www.w3.org/TR/2001/REC-SVG-20010904/DTD/svg10.dtd">
<svg version="1.0" xmlns="http://www.w3.org/2000/svg"
 width="200.000000pt" height="200.000000pt" viewBox="0 0 200.000000 200.000000"
 preserveAspectRatio="xMidYMid meet">
<metadata>
Created by potrace 1.15, written by Peter Selinger 2001-2017
</metadata>
<g transform="translate(0.000000,200.000000) scale(0.100000,-0.100000)"
fill="#000000" stroke="none">
<path d="M1356 1804 c-3 -9 -6 -42 -6 -75 0 -56 -1 -59 -24 -59 -23 0 -25 -4
-29 -72 -2 -40 -24 -181 -47 -313 l-43 -240 -100 -150 c-55 -82 -103 -154
-107 -158 -3 -4 -49 26 -101 68 -52 41 -100 75 -106 75 -20 0 -267 -100 -279
-113 -6 -7 -33 -74 -59 -151 l-48 -138 -27 58 c-14 33 -37 85 -50 116 -14 32
-29 58 -35 57 -32 0 -86 -47 -156 -135 l-79 -99 32 -27 c18 -15 36 -28 39 -28
4 0 35 35 70 77 l63 77 55 -117 54 -117 44 0 c36 0 45 4 52 23 4 12 33 96 65
187 l57 166 95 31 96 32 111 -83 c62 -45 118 -85 124 -90 9 -5 32 23 74 89 34
52 64 94 66 91 3 -3 -3 -50 -12 -105 -9 -55 -14 -114 -10 -131 4 -17 2 -30 -3
-30 -5 0 -13 -37 -17 -82 -11 -115 -14 -268 -5 -268 10 0 20 27 20 55 0 12 7
28 14 35 8 6 20 37 26 68 6 31 18 81 26 110 9 29 13 59 10 68 -3 8 0 25 8 37
8 12 47 217 87 455 63 377 75 432 90 432 13 0 20 -14 29 -57 150 -731 189
-904 208 -921 13 -11 31 -61 52 -137 18 -66 37 -124 42 -130 6 -6 7 -1 4 15
-19 87 -37 245 -30 268 10 39 12 27 -103 560 -58 268 -108 521 -111 562 -6 68
-9 75 -29 78 -21 3 -23 9 -23 55 0 79 -8 97 -40 97 -16 0 -30 -7 -34 -16z"/>
</g>
</svg>
